<svg width="59" height="20" viewBox="0 0 59 20" fill="none" xmlns="http://www.w3.org/2000/svg">
<g clip-path="url(#clip0_22_294)">
<path d="M23.4023 15.5569C21.6824 15.5569 20.2879 14.1647 20.2879 12.459C20.2879 10.7533 21.6876 9.36108 23.4023 9.36108C25.117 9.36108 26.5167 10.7533 26.5167 12.459C26.5167 14.1647 25.117 15.5569 23.4023 15.5569ZM23.4023 5.2459C19.4047 5.2459 16.1509 8.48255 16.1509 12.459C16.1509 16.4355 19.4047 19.6721 23.4023 19.6721C27.3998 19.6721 30.6537 16.4355 30.6537 12.459C30.6537 8.48255 27.3998 5.2459 23.4023 5.2459Z" fill="white"/>
<path d="M56.5952 10.4717C55.4455 10.4717 54.5091 11.3847 54.5091 12.5168C54.5091 14.21 53.0997 15.5921 51.3729 15.5921C49.6457 15.5921 48.2363 14.21 48.2363 12.5168V9.44154H51.8722C53.0216 9.44154 53.958 8.52865 53.958 7.39646C53.958 6.26426 53.0268 5.35134 51.8722 5.35134H48.2363V2.37296C48.2363 1.24586 47.3052 0.327866 46.1505 0.327866C44.9956 0.327866 44.0648 1.24076 44.0648 2.37296V12.5117C44.0648 14.2049 42.655 15.587 40.9282 15.587C39.2014 15.587 37.7916 14.2049 37.7916 12.5117V7.39134C37.7916 6.26426 36.8605 5.34626 35.7059 5.34626C34.5513 5.34626 33.6201 6.25914 33.6201 7.39134V12.5117C33.6201 16.4591 36.8971 19.6721 40.9229 19.6721C42.9672 19.6721 44.8189 18.8459 46.1453 17.5097C47.4716 18.8408 49.3233 19.6721 51.3676 19.6721C55.3934 19.6721 58.6704 16.4591 58.6704 12.5117C58.6704 11.3847 57.7393 10.4667 56.5846 10.4667" fill="#EB6087"/>
<path d="M14.8117 12.3461C14.8475 8.48964 14.827 6.43387 14.8219 2.58255C14.8219 1.25627 13.9453 0.327866 12.7355 0.327866C11.5309 0.327866 10.6645 1.26647 10.6645 2.58765C10.6645 4.2557 10.6697 4.12308 10.6748 5.88295C10.3775 5.77583 10.1775 5.69931 9.97761 5.6279C6.50201 4.41895 2.66246 5.99518 1.05795 9.30068C-0.541435 12.5858 0.56583 16.5443 3.66721 18.4776C6.06116 19.9722 8.5679 20.0742 11.0336 18.7275C13.525 17.3655 14.7809 15.1721 14.8065 12.3461H14.8117ZM5.32811 14.5548C4.19521 13.3357 4.24136 11.3105 5.42551 10.2087C6.68145 9.04564 8.6858 9.10177 9.82895 10.3413C10.9772 11.5911 10.9157 13.5244 9.68541 14.662C8.44486 15.8097 6.45076 15.7587 5.33322 14.5548H5.32811Z" fill="white"/>
<path d="M33.7806 3.26762C33.834 3.39508 33.9036 3.52255 33.9784 3.63941C34.0588 3.75626 34.1445 3.8678 34.2408 3.96341C34.337 4.05901 34.4494 4.14931 34.5671 4.22898C34.6792 4.30865 34.8077 4.37239 34.9415 4.4255C35.0697 4.47862 35.2036 4.52111 35.3427 4.54767C35.4817 4.57423 35.6208 4.59016 35.7599 4.59016C36.3216 4.59016 36.878 4.36177 37.2791 3.96872C37.3754 3.87311 37.4663 3.76157 37.5467 3.64472C37.6216 3.53318 37.6911 3.4057 37.7445 3.27293C37.7979 3.14546 37.8408 3.01267 37.8675 2.87458C37.8945 2.73648 37.905 2.59838 37.905 2.46029C37.905 2.32219 37.8945 2.18409 37.8675 2.04069C37.8408 1.9079 37.7979 1.76981 37.7445 1.64233C37.6911 1.51486 37.6216 1.38738 37.5467 1.27585C37.4663 1.15899 37.3754 1.04746 37.2791 0.951849C36.7817 0.457888 36.0434 0.229498 35.3479 0.367596C35.2088 0.39415 35.075 0.436642 34.9468 0.489757C34.8182 0.542872 34.69 0.611921 34.5724 0.686278C34.4547 0.76595 34.3423 0.856245 34.246 0.951849C34.1498 1.04746 34.0588 1.15899 33.984 1.27585C33.9036 1.38738 33.8393 1.51486 33.7859 1.64233C33.7325 1.76981 33.6897 1.90259 33.663 2.04069C33.6363 2.17878 33.6201 2.31688 33.6201 2.46029C33.6201 2.60369 33.6363 2.73648 33.663 2.87458C33.6844 3.01267 33.7272 3.14546 33.7806 3.27293" fill="#EB6087"/>
</g>
<defs>
<clipPath id="clip0_22_294">
<rect width="59" height="20" fill="white"/>
</clipPath>
</defs>
</svg>
