<svg width="49" height="56" viewBox="0 0 49 56" fill="none" xmlns="http://www.w3.org/2000/svg">
<path d="M30.7109 38.3312L21.8715 22.2559C19.4329 17.8211 14.4114 15.4673 9.44355 16.4305C1.81296 17.9099 -2.25818 26.3047 1.3041 33.2142L9.71072 49.52C12.1326 54.2176 17.362 56.7546 22.5497 55.7488C30.4714 54.213 34.5995 45.4029 30.7109 38.3312Z" fill="white"/>
<path d="M26.7325 6.26264L9.66341 38.277C5.82445 45.4773 10.0995 54.332 18.1246 55.8021C23.3369 56.7569 28.5611 54.1937 30.9965 49.4866L47.6684 17.2635C51.3201 10.2056 47.1122 1.62592 39.2968 0.194222C34.2346 -0.733107 29.1541 1.72074 26.7325 6.26264Z" fill="#2AB9BD" fill-opacity="0.75"/>
</svg>
